<svg xmlns="http://www.w3.org/2000/svg" viewBox="0 0 1448 1448"><path d="M715.56 0h15.5q184.66 2.49 343.14 90.3c98.49 54.57 185.57 133.26 249.15 227.73Q1443.89 497.12 1448 715.06v17.5c-6.3 394.43-321.62 709.49-716.06 715.44h-16.25q-179.66-2.77-336.62-87.47c-128.43-69.31-235.06-179.32-300.81-309.05Q2.5 902 0 732.44v-17.25C5.69 322.53 321.42 5.62 715.56 0Z"/><path fill="#fff" d="m599.09 143.12-25.57-90.14a.25.25 0 0 1 .17-.32l38.76-10.98q.54-.15.7.38 19.38 67.87 38.56 135.77 1.74 6.17 1.45 9.98c-.88 11.78-12.47 21.08-24.24 18.6q-3.47-.73-11.79-5.38-51.6-28.87-103.29-57.58-.67-.37-.46.37L538.96 234a.23.22 74.4 0 1-.15.28l-39.08 11.17a.34.33-15.9 0 1-.41-.22q-18.96-67.03-37.99-134.01-2.18-7.69-2.03-11.21c.51-12.18 11.53-21.47 23.51-19.41q4.48.77 15.2 6.79 50.23 28.18 100.63 56.08.65.36.45-.35ZM857.06 175.53l3.21-19.49a.38.37-80.7 0 0-.3-.43l-39.83-6.62a.53.53 0 0 1-.43-.61l6.57-39.58q.08-.51.6-.43l80.41 13.33q.39.06.32.45l-9.47 57.11q-.09.55-.53.9-14.15 11.12-28.27 22.19-7.39 5.79-8.83 14.37-.08.48-.56.5-5.8.24-11.45-.69-25.3-4.19-50.58-8.42-13.59-2.28-19.46-4.37c-23.04-8.19-39.71-29.95-40.94-54.76q-.33-6.54 1.74-19.88 2.55-16.46 5.3-32.89c5.74-34.27 36.74-57.83 70.95-52.49q30.14 4.7 46.68 7.84c30.57 5.8 52.2 25.28 47.21 59.27q-.09.56-.64.47l-39.54-6.5a.69.68 14.7 0 1-.53-.9c2.96-8.44-8.15-10.85-13.75-11.84q-13.1-2.29-40.58-6.87-7.61-1.26-11.8-.57c-14.17 2.36-16.37 12.74-18.57 26.26q-3.76 23.16-5.02 30.37c-2.02 11.56 4.61 22.24 16.5 24.4q30.39 5.52 60.9 10.38.59.09.69-.5ZM386.62 246.55l10.39 16.75q.17.27.44.1l73.33-45.65a.31.3 66.4 0 1 .45.18q4.49 16.11 9.03 32.27 1.15 4.1 3.5 7.03.5.63-.18 1.05l-99.1 61.73q-.48.31-.78-.18-33.75-54.21-67.22-108.12-5.55-8.94-6.77-13.08c-2.89-9.75-.37-20.91 6.22-28.66q3.01-3.54 10.58-8.28 46.19-28.93 92.5-57.65a.43.42 57.3 0 1 .58.13l21.27 34.23a.42.41-31.8 0 1-.14.57l-86.67 54.04q-.53.33-.2.86l10.45 16.8q.16.27.43.1l51.82-32.22q.46-.28.75.17l21.22 34.1a.46.46 0 0 1-.15.63l-51.51 32.1q-.62.38-.24 1ZM1000.6 256.86l-61.49-31.22q-.46-.24-.86.08l-17.13 13.4a.8.8 0 0 1-.86.09l-39.57-20.14a.3.3 0 0 1-.05-.51q64.24-50.41 128.59-100.81 6.92-5.42 10.89-6.66c9.97-3.11 21.82 2.78 25.11 12.72q1.35 4.07 1.01 14.5-2.03 61.68-4.08 123.37-.02.5-.38.83-9.88 9.22-19.74 18.54-2.28 2.15-4.23 7.11-.21.54-.73.28l-16.2-8.29q-.49-.25-.47-.8l.71-21.61q.02-.6-.52-.88Z"/><path d="m974.9 197.05 28.43-22.35a.34.34 0 0 1 .55.28l-1.24 36.15a.34.34 0 0 1-.49.29l-27.2-13.8a.34.34 0 0 1-.05-.57Z"/><path fill="#fff" d="m1119.7 272.91-54.78 51.28a.43.42 46.4 0 1-.61-.02l-27.46-29.32q-.38-.4.02-.77 51.39-48.19 102.8-96.32c9.87-9.23 23.79-11.2 32.61.7q5.8 7.84 3.14 19.22l-26.22 112.14a.34.34 0 0 0 .38.41q54.16-8.97 108.38-18.01 10.25-1.71 14.66-.94c17.38 3.03 21.85 24.25 9.47 35.82q-30.82 28.82-61.57 57.72-2.31 2.17-5.19 3.47-25.18 11.39-50.41 22.63-.5.22-.87-.18l-14.26-15.22q-.43-.46.03-.89l54.87-51.46a.17.17 0 0 0-.15-.29q-40.13 6.69-80.35 13.35c-3.24.53-8.45-.58-11.57-2.32q-14.31-8.04-10.15-25.42 10.66-44.55 17.62-75.36.17-.75-.39-.22ZM278.9 374.54l29.35 27.25q.41.38.03.79l-27.18 29.34q-.41.45-.86.03L160.07 320.47q-.35-.33-.02-.69 33.34-36.12 66.71-72 6.94-7.46 14.04-12.46c19.02-13.35 43.59-13.74 64.05-3.03q1.81.95 2.96 2.78 13.99 22.42 27.88 44.86 1.15 1.84 1.2 3.92c.54 21.85-7.73 35.37-22.08 50.84q-18.03 19.43-35.94 38.95-.43.47.03.9Z"/><path fill="#25b700" d="M1004.03 822.27c-.28-8.37-7.51-12.71-15.32-12.75q-124.73-.71-249.46-1.28-17.8-.08-19.98-.23c-24.33-1.7-46.34-13.31-61-32.83-40.41-53.79-5.52-132.09 62.72-135.19 7.27-.33 16 .08 20.87.08q230.82-.31 462.98-.35 1.22 0 1.43 1.21c51.26 300.25-180.63 573.25-484.03 572.43-234.56-.63-437.57-169.97-479.68-401.17-25.03-137.43 9.9-279.92 95.89-389.48 189.39-241.29 551.22-252.06 753.39-21.06q79.08 90.36 108.64 209.33.32 1.27-.98 1.27h-199.2q-.47 0-.66-.44c-52.47-126.69-182.12-201.71-318.46-182.3C555.02 447.47 453.34 546.34 431 671.75c-21.81 122.42 35.06 245.52 142.29 308.67 151.73 89.36 345.06 27.63 419.86-129.51q3.34-7.03 8.52-19.54 2.47-5.96 2.36-9.1Z"/><path d="M218.23 318.3a.6.6 0 0 1-.03-.84l41.32-44.62a21.25 20.65-47.2 0 1 29.59-1.56l.14.13a21.25 20.65-47.2 0 1 .72 29.63l-41.32 44.61a.6.6 0 0 1-.85.04l-29.57-27.39Z"/><path fill="#fff" d="M119.88 535.44c-32.75-15.45-45.11-52.05-29.93-84.75q13.91-29.96 18.29-38.41c15.92-30.67 53.22-40.45 83.82-25.6q9.32 4.53 18.7 9.02 3.08 1.47 5.57 3.78 20.16 18.66 40.26 37.37 1.63 1.52 2.25 3.51c5.86 18.93 2.49 33.32-5.76 51.24q-10.93 23.75-16.33 34.12C223.55 551.1 193.31 563.5 166 556q-5.75-1.58-18.48-7.56-13.83-6.49-27.64-13ZM1246.46 461.07l-17.92 8.08a.45.45 0 0 0-.23.6l41.8 93.29q.23.51-.29.74l-36.56 16.42q-.45.2-.66-.25l-58.67-130.88q-.22-.47.26-.69 60.82-27.35 121.56-54.59c13.31-5.98 28.89-2.06 37.54 9.51q2.19 2.92 8.83 17.69 20.51 45.62 40.94 91.29.23.52-.28.75l-36.36 16.34q-.65.29-.93-.35L1303.77 436q-.25-.56-.81-.31l-18.01 8.09a.41.41 0 0 0-.2.54l24.99 55.75a.43.43 0 0 1-.21.56l-36.81 16.55q-.33.14-.48-.18l-24.96-55.62q-.25-.56-.82-.31Z"/><rect width="82.66" height="82.74" x="-41.33" y="-41.37" rx="20.88" transform="rotate(25.6 -945.71 614.179)"/><path fill="#fff" d="M724.01 612.42c-6.45.01-12.82 1.04-19.19 2.1-80.89 13.39-119.44 109.78-70.14 175.73 18.28 24.45 44.89 39.98 75.12 44.04q6.93.94 19.96 1 113.12.58 226.2 1.15a.36.36 0 0 1 .32.52c-48.51 98.51-152.65 156.15-262.11 143.62-116.32-13.31-209.79-104.81-226.04-221.13q-.96-6.93-1.49-17.57c-.89-18.15-1.13-36.94 1.66-54.94 17.82-114.9 106.18-202.82 221.5-219 8.54-1.19 18.85-1.4 28.27-1.9q5.91-.32 11.35-.05c10.39.51 21.21.84 31.06 2.27 85.36 12.43 158.27 65.93 196.05 143.48q.22.45-.29.46-116.17.1-232.23.22ZM1239.53 983.12l23.89-55.92a.44.43 23.3 0 1 .57-.22l37.15 15.83a.31.3-66.7 0 1 .16.41l-24.01 56.4q-.14.33.2.47l18.33 7.81a.43.43 0 0 0 .57-.23l40.13-94.01q.22-.53.75-.31l36.83 15.72q.48.21.27.69l-56.24 131.87q-.23.53-.76.3c-40.37-17.64-81.08-34.59-121.63-51.82-16.96-7.21-24.3-25.8-17.01-42.73q22.04-51.21 43.99-102.46.19-.45.64-.26l36.77 15.72q.56.24.32.79l-40.01 93.89q-.24.56.32.79l17.89 7.62q.62.26.88-.35ZM150.75 1009.54c5.15 11.02 15.23 16.17 27.21 11.79q.56-.2.8.34l14.15 31.33q.18.39-.14.68l-9.46 8.84q-.28.26-.65.32c-30.66 5.05-57.18-8.96-69.96-36.92q-7.75-16.94-15.09-34.06-4.26-9.93-5.39-16.21c-4.03-22.37 4.83-45.5 22.49-59.49 10.46-8.29 26.52-14.26 39.32-19.96q14.67-6.52 18.44-7.69c30.82-9.54 62.25 6.14 75.34 35.22q7.64 16.96 15.38 33.89 11.64 25.43 1.45 51.51-.18.45-.65.51-20.76 2.89-37.56 15.36-.57.42-.86-.23l-9.06-20.05q-.22-.47.23-.75 17.46-10.91 8.47-30.44-7.48-16.22-14.91-32.51c-4.07-8.9-10.94-14.8-21.14-13.91q-4.48.39-14.2 4.84-15.47 7.08-30.97 14.03c-10.37 4.66-14.2 17.84-9.51 28.18q8.03 17.73 16.27 35.38ZM1185.54 1124.52l-43.46-95.53q-.18-.4.1-.74l19.6-22.98q.37-.43.64.06 8.25 14.83 23.69 21.91.46.21.67.67 25.65 56.31 51.29 112.61 4.8 10.54 5.14 15.11c.79 10.78-8.65 21.19-19.74 21.35q-3.5.05-12.28-2.38-78.27-21.65-156.56-43.34a.14.14 0 0 1-.07-.23l28.91-33.88a1.01 1.01 0 0 1 1.05-.32l100.85 27.89a.15.14-4.8 0 0 .17-.2ZM201.73 1072.74q22.95-21.08 34.99-30.78c26.37-21.24 63.99-16.22 85.85 8.99q21.53 24.84 26.76 31.21 15.24 18.56 14.43 42.77-.02.52-.3.95-17.78 26.97-35.65 53.88-2.22 3.36-5.18 5.98-11.53 10.22-15.41 12.98c-21.96 15.61-51.22 15.84-72.82-.04q-5.46-4.02-14.23-13.98-9.54-10.86-18.91-21.88-8.71-10.22-11.86-16.03c-13.25-24.39-8.36-55.03 12.33-74.05Z"/><rect width="82.68" height="82.68" x="-41.34" y="-41.34" rx="20.88" transform="rotate(-41.1 1629.716 195.812)"/><path fill="#fff" d="m354.65 1249.8 63.41 42.13q.44.29.25.78-3.88 9.88-7.6 19.66c-2.4 6.3-6.26 11.38-9.89 16.93q-.26.39-.65.13-39.1-25.95-78.17-51.83-10.25-6.79-12.89-10.44c-5.97-8.25-4.11-17.27 1.3-25.45q38.52-58.23 77.84-117.57.32-.49.81-.17l33.29 22.08q.52.34.17.87l-67.93 102.62q-.11.16.06.26ZM1035.53 1137.08c2.31 6.49 6.95 11.15 13.56 13q12.52 3.53 24.97 7.06.55.15.89.6l74.93 98.11q.39.51-.12.9l-31.74 24.3q-.44.33-.77-.1l-99.48-130.29q-.36-.47.11-.83l16.98-12.95q.47-.36.67.2ZM1034.87 1332.24l-36.5 17.63a.3.3 0 0 1-.4-.14l-53.52-111.09a.3.3 0 0 0-.4-.14l-55.23 26.64a.3.3 0 0 1-.4-.14l-17.61-36.55a.3.3 0 0 1 .14-.4l132.15-63.79a.3.3 0 0 1 .37.08l25.14 32.94a.3.3 0 0 1-.11.45l-46.85 22.61a.3.3 0 0 0-.14.4l53.5 111.1a.3.3 0 0 1-.14.4ZM474.89 1317l74.83 28.97q.46.18.45.67-.02 2.37-.37 3.38-3.91 10.92-13.29 34.42-.19.48-.67.29-44.95-17.35-89.82-34.75-8.98-3.49-12.21-6.36c-7.43-6.62-7.94-15.77-4.45-24.81q25.46-66.06 50.99-132.04a.5.5 0 0 1 .64-.29l37.62 14.56a.3.29-69.8 0 1 .17.39L474.5 1316.1a.7.69-68.8 0 0 .39.9ZM868.77 1269.49c5.82 12.08 11.81 17.14 25.5 14.73q.35-.06.23.27-.04.13-.08.24-.02.08-.11.09l-39.62 6.29q-.47.07-.59-.38-3.86-14.2-16.79-16.38-4.4-.74-13.56.75-14.9 2.42-29.81 4.76c-10.74 1.69-19.09 5.9-21.14 17.15q-.82 4.46.79 14.4 2.69 16.68 5.42 33.34c1.54 9.41 8.75 16.63 18.21 17.58q2.87.29 10.02-.84l31.86-5.04c13.51-2.14 22.21-8.58 21.69-23.86q-.01-.48.46-.55l39.32-6.27q.46-.07.53.4c4.78 34.03-17.94 64.83-51.17 70.23q-19.2 3.12-38.43 6.11c-30.85 4.8-59.78-10.36-70.29-40.18q-2.03-5.76-4.26-19.5-4-24.69-5.07-32.27c-4.86-34.46 18-65.21 51.69-70.74q20.28-3.33 40.62-6.38 14.12-2.12 27.72 2 .49.15.72.61 8.1 16.73 16.14 33.44ZM618.69 1296.3l60.24 7.76q.55.07.48.62l-5.12 39.83q-.07.48-.54.42l-60.38-7.77q-.56-.07-.63.48l-2.5 19.54q-.06.5.44.57l101.14 13.05q.67.09.58.76l-5.09 39.69q-.06.48-.54.42l-142.07-18.32q-.57-.08-.5-.65 8.27-64.98 16.72-129.81c2.03-15.55 10.74-26.77 26.71-29.19q4.72-.72 12.7.32 53.74 6.97 107.46 13.87.53.07.47.6l-.34 2.89q-.06.46-.33.83-11.26 15.41-14.85 34.22-.2 1.03-1.23.89l-90.08-11.62q-.73-.1-.82.64l-2.44 19.29q-.07.59.52.67Z"/></svg>