<?xml version="1.0" encoding="UTF-8" standalone="no"?>
<!DOCTYPE svg PUBLIC "-//W3C//DTD SVG 1.1//EN" "http://www.w3.org/Graphics/SVG/1.1/DTD/svg11.dtd">
<svg width="100%" height="100%" viewBox="0 0 1760 765" version="1.1" xmlns="http://www.w3.org/2000/svg" xmlns:xlink="http://www.w3.org/1999/xlink" xml:space="preserve" xmlns:serif="http://www.serif.com/" style="fill-rule:evenodd;clip-rule:evenodd;stroke-linejoin:round;stroke-miterlimit:2;">
    <g transform="matrix(1,0,0,1,-140.076,-142.5)">
        <path d="M430.79,896.09C248.88,850.66 126.18,681.38 141.34,493.46C156.73,302.57 313.31,151.6 504.57,142.84C509.37,142.62 516.037,142.51 524.57,142.51C854.55,142.503 1184.53,142.5 1514.5,142.5C1522.92,142.5 1529.58,142.61 1534.49,142.83C1751.79,152.77 1914.97,340.2 1898.37,556.04C1883.21,753.08 1715.69,907.26 1518.75,907.25L515.75,907.25C488.903,907.25 460.583,903.53 430.79,896.09ZM203.16,478.16C174.5,671.82 326.06,847.71 522,847.73C850.813,847.757 1179.62,847.76 1508.43,847.74C1517.38,847.74 1524.05,847.65 1528.44,847.47C1718.49,839.75 1858.67,675.04 1837.7,486.69C1827.26,392.83 1772.69,306.51 1694.68,255.31C1642.79,221.25 1585.48,203.517 1522.75,202.11C1520.2,202.05 1513.54,202.02 1502.75,202.02C1179.52,201.987 856.293,201.987 533.06,202.02C523.76,202.02 517.097,202.093 513.07,202.24C356.54,207.73 226.21,322.45 203.16,478.16Z" style="fill-rule:nonzero;"/>
        <path d="M840.45,704.05C747.31,612.99 740.79,466.28 821.94,366.19C911.54,255.67 1078.64,242.04 1184.25,337.35C1223.14,372.45 1249.03,415.717 1261.92,467.15C1261.93,467.176 1261.93,467.203 1261.93,467.23C1261.93,467.416 1261.78,467.57 1261.59,467.57L1159.32,467.56C1158.92,467.56 1158.64,467.377 1158.47,467.01C1155.55,460.46 1152.38,453.75 1148.84,447.84C1112.49,387.31 1041.55,358.32 973.25,378.49C920.69,394.02 878.58,438.92 867.4,493.22C846.14,596.5 932.64,691.94 1038.75,676.49C1093.49,668.52 1139.41,631.75 1159.79,579.92C1162.29,573.56 1159.46,569.16 1152.31,569.1C1117.07,568.833 1081.82,568.647 1046.57,568.54C1039.32,568.52 1033.81,568.047 1030.03,567.12C1010.25,562.28 997.05,545.24 997.02,525.01C996.98,506.13 1010.04,488.42 1028.44,483.57C1032.29,482.557 1038.75,482.047 1047.83,482.04C1120.02,481.987 1192.06,481.863 1263.94,481.67C1264.43,481.669 1264.86,482.031 1264.94,482.52C1275.75,547.98 1261.36,613.92 1223.7,668.19C1134.12,797.26 952.13,813.24 840.45,704.05Z" style="fill-rule:nonzero;"/>
        <path d="M550.71,741.96C434.49,714.91 360.29,600.16 384.58,482.56C402.81,394.32 474.61,324.88 563.63,310.25C651.32,295.83 736.78,333.98 785.29,408.36C785.457,408.62 785.47,408.89 785.33,409.17C747.37,483.87 747.2,571.01 785.1,645.24C785.377,645.776 785.343,646.423 785.01,646.93C734.65,724.15 641.37,763.05 550.71,741.96ZM727.02,527.36C727.02,454.651 667.189,394.82 594.48,394.82C521.771,394.82 461.94,454.651 461.94,527.36C461.94,600.069 521.771,659.9 594.48,659.9C667.189,659.9 727.02,600.069 727.02,527.36Z" style="fill-rule:nonzero;"/>
        <path d="M1560.97,560.29C1559.07,560.043 1557.16,559.92 1555.23,559.92C1461.2,559.987 1367.09,560.013 1272.92,560C1272.56,560 1272.4,559.823 1272.44,559.47C1278.53,506.99 1269.87,457.26 1246.46,410.28C1246.33,410.012 1246.35,409.697 1246.51,409.45C1301.11,323.45 1406.69,286.68 1502.55,318.67C1552.62,335.37 1594,369.66 1621.61,414.75C1621.77,415.017 1621.72,415.233 1621.45,415.4L1547.68,459.46C1547.34,459.667 1547.07,459.6 1546.86,459.26C1487.43,361.84 1341.27,378.32 1306.61,487.77C1306.51,488.09 1306.63,488.25 1306.97,488.25C1413.38,488.257 1519.78,488.253 1626.16,488.24C1631.57,488.24 1635.56,488.713 1638.15,489.66C1648.24,493.33 1651.32,501.41 1652,511.98C1657.92,604.34 1605.99,692.83 1520.09,729.3C1419.5,772.02 1306.26,737.25 1246.74,645.69C1246.45,645.244 1246.41,644.674 1246.64,644.19L1251.98,633.02C1252.08,632.792 1252.26,632.603 1252.47,632.48L1317.54,593.55C1317.63,593.499 1317.73,593.472 1317.83,593.472C1318.03,593.472 1318.21,593.578 1318.31,593.75C1367.47,677.46 1485.64,682.8 1541.76,603.25C1550.79,590.457 1557.31,576.313 1561.33,560.82C1561.41,560.513 1561.29,560.337 1560.97,560.29Z" style="fill-rule:nonzero;"/>
    </g>
</svg>
